<?xml version="1.0" ?><!DOCTYPE svg  PUBLIC '-//W3C//DTD SVG 1.1//EN'  'http://www.w3.org/Graphics/SVG/1.1/DTD/svg11.dtd'><svg height="2048px" style="shape-rendering:geometricPrecision; text-rendering:geometricPrecision; image-rendering:optimizeQuality; fill-rule:evenodd; clip-rule:evenodd" viewBox="0 0 2048 2048" width="2048px" xml:space="preserve" xmlns="http://www.w3.org/2000/svg" xmlns:xlink="http://www.w3.org/1999/xlink"><defs><style type="text/css">
   <![CDATA[
    .fil1 {fill:none}
    .fil0 {fill:#424242;fill-rule:nonzero}
   ]]>
  </style></defs><g id="Layer_x0020_1"><path class="fil0" d="M911.049 1326.86c15.7063,16.174 33.0071,28.2721 51.8989,36.2953 18.8173,7.99253 39.4477,11.9882 61.8922,11.9882l353.592 0c26.6811,0 51.5788,4.97835 74.6505,14.9162 22.9606,9.8882 43.9701,24.6697 62.9906,44.3185 19.0228,19.5933 33.2988,41.1922 42.8492,64.8201 9.55158,23.6339 14.3162,49.0926 14.3162,76.3985 0,27.3355 -4.77284,52.8579 -14.3433,76.5414 -9.5504,23.6351 -23.8181,45.2327 -42.8221,64.7611 -19.0276,19.6146 -39.9945,34.3595 -62.928,44.2217 -23.0575,9.91536 -47.9516,14.8795 -74.713,14.8795l-353.437 0c-75.7619,0 -146.105,-13.9158 -211.061,-41.7555 -64.8934,-27.8114 -124.193,-69.4512 -177.926,-124.923 -53.7331,-55.4103 -94.0501,-116.564 -120.956,-183.444 -26.915,-66.9048 -40.3677,-139.342 -40.3677,-217.297l0 -736.043c0,-27.9603 4.7504,-53.8737 14.2465,-77.7449 9.51142,-23.9103 23.7154,-45.4937 42.6048,-64.7552 18.9319,-19.2721 40.0288,-33.7713 63.2693,-43.4717 23.2441,-9.70276 48.4524,-14.5642 75.606,-14.5642 26.465,0 51.241,4.98898 74.2772,14.9622 22.9087,9.92009 43.7918,24.6756 62.5914,44.2571 18.854,19.5496 33.0402,41.1426 42.5374,64.7717 9.50552,23.6457 14.2665,49.1174 14.2665,76.4068l0 168.38 513.815 0c26.7437,0 51.6945,4.96181 74.8453,14.8866 23.0788,9.89174 44.165,24.6567 63.2516,44.2866 19.0701,19.5567 33.3803,41.1414 42.9366,64.7221 9.59292,23.6705 14.3835,49.2059 14.3835,76.5792 0,27.326 -4.78819,52.8296 -14.3658,76.4835 -9.54331,23.5701 -23.837,45.1595 -42.8776,64.741 -19.0323,19.6169 -40.024,34.3571 -62.9682,44.2111 -23.0669,9.90709 -47.9611,14.863 -74.6729,14.863l-514.426 0 0 166.873c0,46.5071 15.6827,85.9642 47.0445,118.433l-0.0011811 0.0011811z"/></g><rect class="fil1" height="2048" width="2048"/></svg>